# AST/ASF file generated using VICON BodyLanguage
# -----------------------------------------------
:version 1.10
:name VICON
:units
  mass 1.0
  length 0.45
  angle deg
:documentation
   .ast/.asf automatically generated from VICON data using
   VICON BodyBuilder and BodyLanguage model FoxedUp or BRILLIANT.MOD
:root
   order TX TY TZ RX RY RZ
   axis XYZ
   position 0 0 0  
   orientation 0 0 0 
:bonedata
  begin
     id 1 
     name lhipjoint
     direction 0.570549 -0.739093 0.358072 
     length 2.41801 
     axis 0 0 0  XYZ
  end
  begin
     id 2 
     name lfemur
     direction 0.34202 -0.939693 0  
     length 7.44434  
     axis 0 0 20  XYZ
    dof rx ry rz
    limits (-160.0 20.0)
           (-70.0 70.0)
           (-60.0 70.0)
  end
  begin
     id 3 
     name ltibia
     direction 0.34202 -0.939693 0   
     length 7.60047   
     axis 0 0 20   XYZ
    dof rx
    limits (-10.0 170.0)
  end
  begin
     id 4 
     name lfoot
     direction 0.0909041 -0.249757 0.964032   
     length 2.03437   
     axis -90 7.62852e-016 20   XYZ
    dof rx rz
    limits (-45.0 90.0)
           (-70.0 20.0)
  end
  begin
     id 5 
     name ltoes
     direction 1.53547e-011 -4.2174e-011 1   
     length 1.02054   
     axis -90 7.62852e-016 20   XYZ
    dof rx
    limits (-90.0 20.0)
  end
  begin
     id 6 
     name rhipjoint
     direction -0.558096 -0.746754 0.361784   
     length 2.3932  
     axis 0 0 0  XYZ 
  end
  begin
     id 7 
     name rfemur
     direction -0.34202 -0.939693 0   
     length 7.3886   
     axis 0 0 -20   XYZ
    dof rx ry rz
    limits (-160.0 20.0)
           (-70.0 70.0)
           (-70.0 60.0)
  end
  begin
     id 8 
     name rtibia
     direction -0.34202 -0.939693 0   
     length 7.4839   
     axis 0 0 -20   XYZ
    dof rx
    limits (-10.0 170.0)
 end
 begin
     id 9 
     name rfoot
     direction -0.114619 -0.314914 0.942174   
     length 2.25127  
     axis -90 -7.62852e-016 -20   XYZ
    dof rx rz
    limits (-45.0 90.0)
           (-20.0 70.0)
  end
  begin
     id 10 
     name rtoes
     direction -1.53518e-011 -4.21881e-011 1   
     length 1.11821   
     axis -90 -7.62852e-016 -20   XYZ
    dof rx
    limits (-90.0 20.0)
  end
  begin
     id 11 
     name lowerback
     direction -0.00902269 0.996426 -0.0839821   
     length 2.25052   
     axis 0 0 0   XYZ
    dof rx ry rz
    limits (-20.0 45.0)
           (-30.0 30.0)
           (-30.0 30.0)
  end
  begin
     id 12 
     name upperback
     direction 0.0370973 0.999169 -0.0168941   
     length 2.24876   
     axis 0 0 0   XYZ
    dof rx ry rz
    limits (-20.0 45.0)
           (-30.0 30.0)
           (-30.0 30.0)
  end
  begin
     id 13 
     name thorax
     direction 0.0402726 0.998931 0.0227027   
     length 2.26408   
     axis 0 0 0   XYZ
    dof rx ry rz
    limits (-20.0 45.0)
           (-30.0 30.0)
           (-30.0 30.0)
  end
  begin
     id 14 
     name lowerneck
     direction -0.0733697 0.98508 0.155675   
     length 1.58204   
     axis 0 0 0   XYZ
    dof rx ry rz
    limits (-20.0 45.0)
           (-30.0 30.0)
           (-30.0 30.0)
  end
  begin
     id 15 
     name upperneck
     direction 0.0426554 0.993501 -0.105526   
     length 1.61222   
     axis 0 0 0   XYZ
    dof rx ry rz
    limits (-20.0 45.0)
           (-30.0 30.0)
           (-30.0 30.0)
  end
  begin
     id 16
     name head
     direction 0.020792 0.998384 -0.0528868  
     length 1.61527  
     axis 0 0 0   XYZ
    dof rx ry rz
    limits (-20.0 45.0)
           (-30.0 30.0)
           (-30.0 30.0)
  end
  begin
     id 17 
     name lclavicle
     direction 0.967109 0.155462 -0.201325  
     length 3.59357  
     axis 0 0 0   XYZ
    dof ry rz
    limits (-20.0 10.0)
           (0.0 20.0)
  end
  begin
     id 18 
     name lhumerus
     direction 1 -4.48968e-011 2.38195e-027   
     length 5.38154   
     axis 180 -30 -90   XYZ
    dof rx ry rz
    limits (-60.0 90.0)
           (-90.0 90.0)
           (-90.0 90.0)
  end
  begin
     id 19
     name lradius
     direction 1 -4.48961e-011 4.85371e-027   
     length 3.33312   
     axis 180 -30 -90   XYZ
    dof rx
    limits (-10.0 170.0)
  end
  begin
     id 20
     name lwrist
     direction 1 -4.48961e-011 4.76515e-027   
     length 1.66656   
     axis -3.27502e-015 90 90   XYZ
    dof ry
    limits (-180.0 0.0)
 end
  begin
     id 21 
     name lhand
     direction 1 -4.48951e-011 9.53074e-027   
     length 0.710789   
     axis -6.08098e-015 90 90   XYZ
    dof rx rz
    limits (-90.0 90.0)
           (-45.0 45.0)
  end
  begin
     id 22 
     name lfingers
     direction 1 -4.48953e-011 1.90613e-026   
     length 0.573057   
     axis -1.21619e-014 90 90   XYZ
    dof rx
    limits (0.0 90.0)
  end
  begin
     id 23
     name lthumb
     direction 0.707107 -6.34973e-011 0.707107   
     length 0.822798   
     axis -90 45 -9.86923e-015   XYZ
    dof rx rz
    limits (-45.0 45.0)
           (-45.0 45.0)
  end
  begin
     id 24 
     name rclavicle
     direction -0.9585 0.265289 -0.104398   
     length 3.42039  
     axis 0 0 0   XYZ 
    dof ry rz
    limits (-10.0 20.0)
           (-20.0 0.0)
  end
  begin
     id 25 
     name rhumerus
     direction -1 -4.48977e-011 2.21478e-027  
     length 5.16954   
     axis 180 30 90   XYZ
    dof rx ry rz
    limits (-90.0 60.0)
           (-90.0 90.0)
           (-90.0 90.0)
  end
  begin
     id 26 
     name rradius
     direction -1 -4.48967e-011 5.63677e-027   
     length 3.38287   
     axis 180 30 90   XYZ
    dof rx
    limits (-10.0 170.0)
  end
  begin
     id 27 
     name rwrist
     direction -1 -4.48967e-011 4.76501e-027   
     length 1.69144   
     axis -3.27502e-015 -90 -90   XYZ
    dof ry
    limits (-180.0 0.0)
  end
  begin
     id 28
     name rhand
     direction -1 -4.48902e-011 9.53292e-027   
     length 0.817967   
     axis -6.08098e-015 -90 -90   XYZ
    dof rx rz
    limits (-90.0 90.0)
           (-45.0 45.0)
  end
  begin
     id 29
     name rfingers
     direction -1 -4.49012e-011 1.90561e-026   
     length 0.659466   
     axis -1.21619e-014 -90 -90   XYZ
    dof rx
    limits (0.0 90.0)
  end
  begin
     id 30
     name rthumb
     direction -0.707107 -6.34944e-011 0.707107   
     length 0.946865   
     axis -90 -45 9.86923e-015   XYZ
    dof rx rz
    limits (-45.0 45.0)
           (-45.0 45.0)
  end
:hierarchy
  begin
    root lhipjoint rhipjoint lowerback
    lhipjoint lfemur
    lfemur ltibia
    ltibia lfoot
    lfoot ltoes
    rhipjoint rfemur
    rfemur rtibia
    rtibia rfoot
    rfoot rtoes
    lowerback upperback
    upperback thorax
    thorax lowerneck lclavicle rclavicle
    lowerneck upperneck
    upperneck head
    lclavicle lhumerus
    lhumerus lradius
    lradius lwrist
    lwrist lhand lthumb
    lhand lfingers
    rclavicle rhumerus
    rhumerus rradius
    rradius rwrist
    rwrist rhand rthumb
    rhand rfingers
  end

#!OML:ASF F:\twosubjects\two\wednesday\Session 1\Justin1.ASF
:FULLY-SPECIFIED
:DEGREES
140
root -4.61073 17.8511 4.78492 -171.625 -25.6366 -178.118
lowerback 6.61836 -0.568008 -1.78881
upperback -3.72286 -0.835393 2.51958
thorax -7.57236 -0.27623 3.77715
lowerneck -8.56068 -10.312 -14.8181
upperneck 13.1248 -13.143 6.84983
head 6.8472 -6.66664 3.29213
rclavicle 1.46604e-015 1.15295e-014
rhumerus 86.4762 -40.2828 -86.0237
rradius 77.7996
rwrist 10.8815
rhand 12.8234 21.4065
rfingers 7.12502
rthumb 37.7991 -4.4471
lclavicle 1.46604e-015 1.15295e-014
lhumerus -39.8609 17.7686 66.2303
lradius 27.8865
lwrist -11.6985
lhand -2.95436 35.706
lfingers 7.12502
lthumb 22.7578 64.3837
rfemur -23.6524 -7.51793 31.2758
rtibia 24.4754
rfoot -7.28312 -4.41023
rtoes 22.8191
lfemur -6.1896 -6.6908 -11.5701
ltibia 46.1835
lfoot 20.7908 -25.5337
ltoes 1.00101
141
root -4.61976 17.8527 4.62754 -171.985 -25.6999 -177.663
lowerback 6.48849 -0.694365 -1.70579
upperback -3.65405 -0.987502 2.75306
thorax -7.40933 -0.355376 3.99241
lowerneck -8.07466 -10.1538 -13.7066
upperneck 12.767 -13.0064 5.99953
head 6.49975 -6.61791 2.90958
rclavicle 3.13831e-014 -5.56597e-015
rhumerus 86.1916 -40.3579 -84.4018
rradius 76.2551
rwrist 18.2183
rhand 19.6373 26.1151
rfingers 7.12502
rthumb 44.1971 2.30614
lclavicle 3.13831e-014 -5.56597e-015
lhumerus -40.8687 18.5195 65.5297
lradius 27.9694
lwrist -11.6791
lhand -2.84931 35.6515
lfingers 7.12502
lthumb 22.8586 64.3168
rfemur -22.7828 -7.46188 31.8349
rtibia 24.235
rfoot -7.86519 -4.57606
rtoes 22.273
lfemur -7.09055 -6.39424 -10.7559
ltibia 47.761
lfoot 18.9305 -25.0327
ltoes 0.317637
142
root -4.63486 17.8611 4.47358 -172.274 -25.5228 -177.397
lowerback 6.39576 -0.801461 -1.70535
upperback -3.59996 -1.1258 2.89974
thorax -7.2842 -0.424283 4.16104
lowerneck -7.84456 -10.0412 -12.9501
upperneck 12.8368 -12.922 5.444
head 6.3853 -6.59215 2.6462
rclavicle 4.43538e-014 2.94201e-014
rhumerus 85.4282 -40.387 -82.0865
rradius 74.8537
rwrist 20.2001
rhand 20.9563 27.4485
rfingers 7.12502
rthumb 45.4249 4.11827
lclavicle 4.43538e-014 2.94201e-014
lhumerus -41.9079 19.2439 64.8564
lradius 27.9784
lwrist -11.5629
lhand -3.00056 35.9644
lfingers 7.12502
lthumb 22.7134 64.6475
rfemur -22.0047 -7.30504 32.1484
rtibia 24.0875
rfoot -8.42818 -4.54427
rtoes 22.8533
lfemur -7.92462 -6.21519 -10.31
ltibia 49.1998
lfoot 16.2416 -24.1386
ltoes -3.93088
143
root -4.65525 17.863 4.32052 -172.497 -25.108 -177.376
lowerback 6.32972 -0.912953 -1.82267
upperback -3.49593 -1.28335 2.91848
thorax -7.11893 -0.499137 4.26121
lowerneck -8.23948 -9.91885 -13.2159
upperneck 13.5532 -12.8084 5.97175
head 6.72373 -6.52105 2.83096
rclavicle -3.8266e-014 1.35174e-014
rhumerus 83.9044 -40.2301 -78.8133
rradius 73.7179
rwrist 16.0111
rhand 18.9062 26.0958
rfingers 7.12502
rthumb 43.5148 2.03431
lclavicle -3.8266e-014 1.35174e-014
lhumerus -42.8217 20.0863 64.0135
lradius 27.7721
lwrist -11.379
lhand -3.19938 36.0901
lfingers 7.12502
lthumb 22.5226 64.7966
rfemur -21.2765 -7.62605 32.2977
rtibia 24.028
rfoot -8.70149 -3.89594
rtoes 22.0433
lfemur -8.46681 -6.06878 -10.1315
ltibia 50.4949
lfoot 14.1668 -21.905
ltoes -4.59086
144
root -4.67799 17.8509 4.17188 -172.626 -24.7717 -177.479
lowerback 6.00132 -1.09394 -2.0082
upperback -3.20667 -1.53511 2.95608
thorax -6.59397 -0.62633 4.41476
lowerneck -9.02274 -9.84854 -13.9412
upperneck 14.209 -12.6751 6.78535
head 7.15949 -6.42472 3.16501
rclavicle -8.32411e-015 4.29375e-014
rhumerus 82.2517 -39.7911 -75.4197
rradius 73.2812
rwrist 8.69386
rhand 14.8556 24.3108
rfingers 7.12502
rthumb 39.7157 -1.0004
lclavicle -8.32411e-015 4.29375e-014
lhumerus -43.5638 20.8965 63.4346
lradius 27.7738
lwrist -10.722
lhand -3.12581 36.0955
lfingers 7.12502
lthumb 22.5932 64.7933
rfemur -20.4999 -8.12745 32.3443
rtibia 23.8765
rfoot -9.00067 -3.17444
rtoes 21.2751
lfemur -8.92087 -6.08354 -10.035
ltibia 51.6453
lfoot 12.0876 -19.9291
ltoes -4.07963
145
root -4.6977 17.8373 4.02615 -172.637 -24.4149 -177.563
lowerback 5.61045 -1.22126 -2.16525
upperback -3.05867 -1.71535 2.92169
thorax -6.19249 -0.719036 4.46742
lowerneck -9.37783 -9.79247 -13.8562
upperneck 14.5866 -12.6021 6.83598
head 7.33311 -6.38015 3.15621
rclavicle 4.97459e-014 8.74653e-015
rhumerus 80.1406 -39.4783 -71.8042
rradius 73.1278
rwrist 1.36022
rhand 9.82677 23.2754
rfingers 7.12502
rthumb 34.962 -3.2895
lclavicle 4.97459e-014 8.74653e-015
lhumerus -44.3333 21.6348 62.738
lradius 27.657
lwrist -10.316
lhand -3.05329 36.4707
lfingers 7.12502
lthumb 22.6628 65.1601
rfemur -19.7747 -7.99243 32.3447
rtibia 23.6738
rfoot -9.4123 -3.04875
rtoes 21.025
lfemur -9.70881 -5.91554 -9.9618
ltibia 52.6622
lfoot 9.85314 -19.1185
ltoes -6.1953
146
root -4.71283 17.8376 3.86996 -172.957 -24.1146 -177.432
lowerback 5.54512 -1.30031 -2.19151
upperback -3.0303 -1.82412 2.85577
thorax -6.11592 -0.774287 4.42023
lowerneck -9.33742 -9.75047 -12.9476
upperneck 14.9323 -12.6308 6.20782
head 7.33766 -6.40766 2.81244
rclavicle 2.74571e-014 -3.18055e-015
rhumerus 77.4233 -39.2343 -67.9016
rradius 72.8258
rwrist -3.71121
rhand 5.90326 23.033
rfingers 7.12502
rthumb 31.2311 -4.32414
lclavicle 2.74571e-014 -3.18055e-015
lhumerus -45.1814 21.9907 61.9057
lradius 27.3183
lwrist -9.99125
lhand -3.11161 36.5878
lfingers 7.12502
lthumb 22.6068 65.2839
rfemur -18.7578 -7.31186 32.4809
rtibia 23.5376
rfoot -9.89645 -3.56636
rtoes 20.3375
lfemur -10.5073 -5.43192 -9.68991
ltibia 53.5646
lfoot 7.57537 -19.0671
ltoes -12.0561
147
root -4.7335 17.8435 3.71077 -173.461 -23.8415 -177.361
lowerback 5.39087 -1.34227 -2.23274
upperback -2.75317 -1.87925 2.78731
thorax -5.7303 -0.810544 4.3616
lowerneck -9.04975 -9.70765 -12.3434
upperneck 14.9069 -12.6806 6.00074
head 7.22871 -6.42732 2.66505
rclavicle 2.96686e-014 -1.43125e-014
rhumerus 75.1345 -38.9536 -64.3108
rradius 72.1291
rwrist -5.26208
rhand 5.1824 23.4811
rfingers 7.12502
rthumb 30.5439 -4.00625
lclavicle 2.96686e-014 -1.43125e-014
lhumerus -45.6779 22.2376 61.4122
lradius 26.9684
lwrist -9.5858
lhand -3.38178 36.4664
lfingers 7.12502
lthumb 22.3475 65.1939
rfemur -17.4525 -6.88599 32.5309
rtibia 23.3501
rfoot -10.3116 -3.87879
rtoes 20.0229
lfemur -11.0212 -5.01941 -9.53034
ltibia 54.2904
lfoot 5.63022 -18.4116
ltoes -15.5954
148
root -4.76092 17.8348 3.5745 -173.587 -23.4037 -177.403
lowerback 5.07665 -1.36556 -2.21604
upperback -2.60903 -1.90676 2.7082
thorax -5.39905 -0.834277 4.25465
lowerneck -8.79709 -9.58622 -12.2835
upperneck 15.0083 -12.6286 6.25804
head 7.22506 -6.39435 2.7554
rclavicle 2.7308e-014 -1.64991e-014
rhumerus 73.1524 -38.3903 -60.9346
rradius 71.0979
rwrist -3.92483
rhand 7.07927 24.8636
rfingers 7.12502
rthumb 32.3511 -2.27132
lclavicle 2.7308e-014 -1.64991e-014
lhumerus -46.2386 22.4832 61.0223
lradius 26.6564
lwrist -9.2437
lhand -3.51292 36.4953
lfingers 7.12502
lthumb 22.2216 65.2379
rfemur -16.5859 -7.05856 32.5132
rtibia 23.1315
rfoot -10.6175 -3.35262
rtoes 20.7024
lfemur -11.6855 -4.92636 -9.55366
ltibia 54.8745
lfoot 4.60161 -16.6121
ltoes -12.1814
149
root -4.80929 17.8223 3.42926 -173.997 -22.0524 -177.432
lowerback 4.9387 -1.16342 -2.10855
upperback -2.42365 -1.62867 2.57553
thorax -5.15615 -0.707814 4.01909
lowerneck -9.31269 -9.51755 -12.2288
upperneck 15.894 -12.5602 6.17757
head 7.58802 -6.37154 2.69082
rclavicle 1.22501e-014 3.77691e-015
rhumerus 70.9277 -37.4697 -57.4962
rradius 70.2567
rwrist -1.46191
rhand 9.43852 26.3797
rfingers 7.12502
rthumb 34.5936 -0.270306
lclavicle 1.22501e-014 3.77691e-015
lhumerus -46.9062 22.6175 60.6298
lradius 26.3583
lwrist -8.80624
lhand -3.47052 36.9279
lfingers 7.12502
lthumb 22.2623 65.6657
rfemur -15.3577 -7.04701 32.3458
rtibia 23.0545
rfoot -10.9269 -2.15829
rtoes 22.3784
lfemur -11.6703 -4.17211 -9.78572
ltibia 55.2985
lfoot 3.22507 -15.0371
ltoes -9.65068
150
root -4.8315 17.8177 3.29092 -174.204 -20.9951 -177.704
lowerback 4.83367 -0.99157 -2.47249
upperback -2.26943 -1.4219 2.44325
thorax -4.94738 -0.598318 4.06094
lowerneck -9.54837 -9.49968 -11.9143
upperneck 16.3058 -12.5395 5.83283
head 7.71843 -6.37528 2.5171
rclavicle -2.65626e-014 -1.63003e-014
rhumerus 68.6144 -36.5 -53.943
rradius 69.6673
rwrist 0.769492
rhand 11.0632 27.7903
rfingers 7.12502
rthumb 36.1341 1.5068
lclavicle -2.65626e-014 -1.63003e-014
lhumerus -47.2737 23.0726 60.1547
lradius 25.8152
lwrist -8.99732
lhand -3.48832 37.1844
lfingers 7.12502
lthumb 22.2452 65.9242
rfemur -14.4151 -6.52646 32.0373
rtibia 23.1347
rfoot -11.0782 -1.78978
rtoes 22.2492
lfemur -12.039 -3.52756 -10.0521
ltibia 55.6826
lfoot 1.44654 -14.3714
ltoes -12.3791
